<?xml version="1.0" standalone="no"?>
<!DOCTYPE svg PUBLIC "-//W3C//DTD SVG 20010904//EN"
 "http://www.w3.org/TR/2001/REC-SVG-20010904/DTD/svg10.dtd">
<svg version="1.0" xmlns="http://www.w3.org/2000/svg"
 width="57.000000pt" height="63.000000pt" viewBox="0 0 57.000000 63.000000"
 preserveAspectRatio="xMidYMid meet">

<g transform="translate(0.000000,63.000000) scale(0.100000,-0.100000)"
fill="#000000" stroke="none">
<path d="M350 620 c0 -5 -9 -19 -20 -30 -17 -17 -23 -18 -40 -8 -17 11 -23 9
-42 -9 -17 -17 -19 -25 -10 -36 16 -19 5 -46 -24 -58 -33 -12 -33 -56 0 -68
29 -12 39 -36 24 -61 -18 -28 7 -53 46 -46 34 6 49 0 59 -26 8 -23 67 -25 67
-3 0 20 36 38 61 30 29 -10 62 21 49 46 -13 24 -2 49 27 60 30 11 28 50 -4 64
-26 11 -37 43 -21 63 9 10 6 18 -10 35 -19 18 -25 20 -42 9 -17 -10 -23 -9
-40 8 -11 11 -20 25 -20 30 0 6 -13 10 -30 10 -16 0 -30 -4 -30 -10z m50 -24
c0 -22 52 -45 73 -32 23 15 45 -7 28 -28 -10 -12 -9 -21 4 -45 8 -17 22 -31
30 -31 8 0 15 -9 15 -20 0 -13 -7 -20 -18 -20 -25 0 -47 -47 -31 -66 17 -20
-8 -49 -27 -33 -20 16 -74 -7 -74 -32 0 -12 -7 -19 -20 -19 -13 0 -20 7 -20
19 0 23 -56 47 -75 31 -17 -14 -43 16 -28 31 16 16 -7 69 -29 69 -11 0 -18 7
-18 20 0 11 7 20 15 20 8 0 22 14 30 31 13 24 14 33 4 45 -17 21 5 43 28 28
21 -13 73 10 73 32 0 8 9 14 20 14 11 0 20 -6 20 -14z"/>
<path d="M330 490 c-27 -27 -25 -66 6 -96 29 -30 67 -27 97 8 54 64 -43 148
-103 88z m78 -6 c41 -28 19 -94 -32 -94 -30 0 -46 18 -46 51 0 24 30 59 50 59
3 0 16 -7 28 -16z"/>
<path d="M138 495 c-44 -30 -88 -114 -88 -169 0 -24 -10 -56 -25 -82 -27 -46
-24 -74 6 -74 16 0 19 -7 19 -43 0 -55 25 -81 70 -75 27 4 30 2 30 -24 l0 -28
130 0 130 0 0 85 c0 73 3 89 25 121 25 37 34 71 15 59 -6 -3 -10 -11 -10 -17
0 -6 -11 -26 -25 -44 -22 -28 -25 -43 -25 -108 l0 -76 -110 0 -110 0 0 24 c0
23 -5 25 -47 28 l-48 3 -3 53 c-3 43 -6 52 -22 52 -31 0 -32 16 -5 69 14 28
25 66 25 86 0 66 39 124 116 172 15 9 15 12 4 12 -9 1 -32 -10 -52 -24z"/>
</g>
</svg>
