<?xml version="1.0" standalone="no"?>
<!DOCTYPE svg PUBLIC "-//W3C//DTD SVG 20010904//EN"
 "http://www.w3.org/TR/2001/REC-SVG-20010904/DTD/svg10.dtd">
<svg version="1.0" xmlns="http://www.w3.org/2000/svg"
 width="62.000000pt" height="62.000000pt" viewBox="0 0 62.000000 62.000000"
 preserveAspectRatio="xMidYMid meet">

<g transform="translate(0.000000,62.000000) scale(0.100000,-0.100000)"
fill="#000000" stroke="none">
<path d="M213 602 c-127 -46 -213 -165 -213 -298 0 -103 75 -220 175 -272 43
-23 62 -27 135 -27 70 0 93 4 130 24 61 32 116 86 148 146 23 43 27 62 27 135
0 73 -4 92 -27 135 -73 139 -236 207 -375 157z m31 -39 c-15 -16 -32 -40 -40
-55 -17 -33 -18 -33 -62 -10 -32 17 -32 19 -15 34 23 21 102 57 125 58 14 0
12 -5 -8 -27z m56 -39 l0 -67 -42 7 c-23 4 -44 9 -47 11 -4 5 76 115 84 115 3
0 5 -30 5 -66z m82 -2 c16 -24 28 -45 26 -47 -2 -2 -23 -7 -46 -11 l-42 -7 0
68 c0 77 7 77 62 -3z m53 44 c75 -34 83 -49 39 -70 -20 -9 -37 -16 -38 -14 -1
2 -19 27 -39 56 -20 28 -31 52 -24 52 6 0 35 -11 62 -24z m-294 -89 l36 -16
-13 -53 c-8 -29 -14 -60 -14 -70 0 -15 -9 -18 -65 -18 -36 0 -65 3 -65 8 0 41
63 178 78 170 4 -2 23 -11 43 -21z m410 -8 c20 -29 49 -107 49 -136 0 -9 -17
-13 -65 -13 -56 0 -65 3 -65 18 0 10 -6 41 -14 70 l-13 52 36 19 c48 25 47 25
72 -10z m-270 -29 c17 0 19 -8 19 -60 l0 -60 -66 0 -66 0 7 43 c14 78 22 90
56 83 18 -3 40 -6 50 -6z m149 -16 c6 -14 13 -43 16 -65 l7 -39 -67 0 -66 0 0
59 0 60 33 4 c65 8 67 7 77 -19z m-280 -151 c1 -16 7 -45 14 -65 l13 -37 -41
-21 c-23 -11 -46 -20 -50 -20 -10 0 -52 96 -61 138 l-7 32 66 0 c65 0 66 0 66
-27z m150 -28 c0 -46 -3 -55 -17 -55 -10 0 -34 -3 -54 -6 l-37 -6 -11 51 c-6
29 -11 56 -11 61 0 6 29 10 65 10 l65 0 0 -55z m150 39 c0 -8 -5 -36 -11 -61
-12 -45 -12 -45 -48 -39 -20 3 -44 6 -53 6 -15 0 -18 9 -18 55 l0 55 65 0 c52
0 65 -3 65 -16z m150 3 c0 -27 -31 -113 -49 -137 l-19 -24 -39 19 c-21 11 -39
21 -41 21 -1 1 3 31 10 68 l13 66 62 0 c46 0 63 -4 63 -13z m-300 -188 c0 -81
-7 -82 -61 -3 -35 51 -36 61 -6 67 67 13 67 13 67 -64z m109 56 c7 -8 -33 -75
-61 -102 l-28 -27 0 73 0 74 42 -7 c23 -4 44 -9 47 -11z m-214 -25 c4 -11 22
-40 40 -65 l34 -44 -45 14 c-44 13 -114 58 -114 74 0 7 57 39 72 40 4 1 10 -8
13 -19z m312 -24 c-6 -19 -81 -66 -115 -72 l-33 -7 42 61 42 60 34 -16 c18 -9
32 -21 30 -26z"/>
</g>
</svg>
