<?xml version="1.0" standalone="no"?>
<!DOCTYPE svg PUBLIC "-//W3C//DTD SVG 20010904//EN"
 "http://www.w3.org/TR/2001/REC-SVG-20010904/DTD/svg10.dtd">
<svg version="1.0" xmlns="http://www.w3.org/2000/svg"
 width="44.000000pt" height="62.000000pt" viewBox="0 0 44.000000 62.000000"
 preserveAspectRatio="xMidYMid meet">

<g transform="translate(0.000000,62.000000) scale(0.100000,-0.100000)"
fill="#000000" stroke="none">
<path d="M140 604 c-84 -36 -134 -115 -134 -214 0 -84 -2 -80 170 -326 l46
-65 99 145 c114 167 130 210 110 299 -29 133 -173 212 -291 161z m170 -29 c62
-32 103 -107 103 -186 -1 -67 -11 -87 -114 -237 l-77 -113 -48 68 c-26 37 -63
90 -82 117 -48 69 -62 107 -62 171 0 93 49 164 131 190 47 15 108 11 149 -10z"/>
<path d="M182 473 c-21 -8 -43 -61 -36 -87 14 -58 85 -78 129 -36 65 61 -8
157 -93 123z m82 -35 c20 -29 20 -47 -1 -70 -18 -20 -63 -24 -81 -6 -17 17
-15 64 4 82 22 23 60 20 78 -6z"/>
</g>
</svg>
