<?xml version="1.0" standalone="no"?>
<!DOCTYPE svg PUBLIC "-//W3C//DTD SVG 20010904//EN"
 "http://www.w3.org/TR/2001/REC-SVG-20010904/DTD/svg10.dtd">
<svg version="1.0" xmlns="http://www.w3.org/2000/svg"
 width="56.000000pt" height="62.000000pt" viewBox="0 0 56.000000 62.000000"
 preserveAspectRatio="xMidYMid meet">

<g transform="translate(0.000000,62.000000) scale(0.100000,-0.100000)"
fill="#000000" stroke="none">
<path d="M16 604 c-14 -13 -16 -54 -16 -290 0 -171 4 -283 10 -295 10 -17 23
-19 163 -19 106 0 157 4 165 12 15 15 17 288 2 288 -6 0 -10 -33 -10 -80 l0
-80 -155 0 -155 0 0 200 0 200 155 0 155 0 0 -80 c0 -47 4 -80 10 -80 15 0 13
213 -2 228 -8 8 -58 12 -159 12 -121 0 -150 -3 -163 -16z m312 -26 c3 -17 -9
-18 -152 -18 -123 0 -156 3 -156 13 0 8 3 17 7 21 4 3 72 5 152 4 130 -3 146
-5 149 -20z m0 -505 l-3 -48 -150 0 -150 0 -3 48 -3 47 156 0 156 0 -3 -47z"/>
<path d="M125 580 c-4 -6 7 -10 24 -10 17 0 31 5 31 10 0 6 -11 10 -24 10 -14
0 -28 -4 -31 -10z"/>
<path d="M200 580 c0 -5 7 -10 16 -10 8 0 12 5 9 10 -3 6 -10 10 -16 10 -5 0
-9 -4 -9 -10z"/>
<path d="M140 91 c-12 -24 -4 -48 20 -56 39 -12 68 20 50 56 -14 25 -56 25
-70 0z m55 -21 c0 -8 -8 -16 -17 -18 -13 -2 -18 3 -18 18 0 15 5 20 18 18 9
-2 17 -10 17 -18z"/>
<path d="M220 405 l-65 -65 67 -67 c37 -37 70 -64 74 -60 4 4 -16 30 -44 57
-29 28 -52 53 -52 56 0 2 81 4 180 4 113 0 180 4 180 10 0 6 -67 10 -180 10
-99 0 -180 4 -180 8 0 4 17 24 38 43 47 44 67 69 55 69 -5 0 -38 -29 -73 -65z"/>
</g>
</svg>
