<?xml version="1.0" standalone="no"?>
<!DOCTYPE svg PUBLIC "-//W3C//DTD SVG 20010904//EN"
 "http://www.w3.org/TR/2001/REC-SVG-20010904/DTD/svg10.dtd">
<svg version="1.0" xmlns="http://www.w3.org/2000/svg"
 width="64.000000pt" height="64.000000pt" viewBox="0 0 64.000000 64.000000"
 preserveAspectRatio="xMidYMid meet">
<metadata>
Created by potrace 1.16, written by Peter Selinger 2001-2019
</metadata>
<g transform="translate(0.000000,64.000000) scale(0.100000,-0.100000)"
fill="#000000" stroke="none">
<path d="M46 590 c-43 -46 -46 -53 -46 -102 1 -102 58 -207 180 -329 97 -97
199 -151 296 -157 l64 -4 50 49 c70 71 69 97 -8 175 -70 69 -98 74 -155 27
-36 -30 -38 -30 -63 -14 -44 29 -103 86 -125 121 l-21 34 31 37 c47 57 42 85
-27 155 -49 49 -64 58 -94 58 -29 0 -43 -8 -82 -50z m144 -45 l54 -55 -37 -38
c-20 -21 -37 -45 -37 -53 0 -55 173 -229 228 -229 9 0 33 17 54 37 l38 37 55
-54 c30 -30 55 -60 55 -66 0 -6 -19 -28 -41 -49 -39 -35 -45 -37 -90 -32 -171
21 -407 259 -427 432 -4 38 0 47 33 84 21 22 43 41 49 41 6 0 36 -25 66 -55z"/>
</g>
</svg>
