<?xml version="1.0" standalone="no"?>
<!DOCTYPE svg PUBLIC "-//W3C//DTD SVG 20010904//EN"
 "http://www.w3.org/TR/2001/REC-SVG-20010904/DTD/svg10.dtd">
<svg version="1.0" xmlns="http://www.w3.org/2000/svg"
 width="70.000000pt" height="60.000000pt" viewBox="0 0 70.000000 60.000000"
 preserveAspectRatio="xMidYMid meet">

<g transform="translate(0.000000,60.000000) scale(0.100000,-0.100000)"
fill="#000000" stroke="none">
<path d="M247 582 c-51 -18 -117 -66 -117 -84 0 -6 10 -2 23 9 42 40 109 67
173 71 69 5 121 -8 177 -44 36 -23 52 -49 23 -38 -8 3 -17 1 -21 -5 -4 -7 8
-11 34 -11 l41 0 0 41 c0 24 -4 38 -10 34 -5 -3 -10 -15 -10 -26 0 -18 -4 -17
-39 11 -72 58 -182 75 -274 42z"/>
<path d="M90 415 c-9 -11 -11 -36 -7 -84 l6 -68 -45 -31 c-35 -26 -44 -37 -44
-62 0 -16 5 -30 10 -30 6 0 10 13 10 30 0 24 7 34 41 52 l40 23 -6 71 c-7 80
3 98 52 92 l28 -3 0 -78 0 -78 40 -28 c25 -17 40 -35 40 -49 0 -11 4 -24 8
-28 4 -4 7 8 7 27 0 30 -6 38 -40 59 l-40 25 6 68 c6 57 4 71 -11 87 -22 24
-77 27 -95 5z"/>
<path d="M514 405 c-13 -20 -15 -38 -9 -90 4 -41 3 -65 -3 -65 -6 0 -24 -12
-41 -26 -22 -18 -31 -35 -31 -55 0 -18 4 -28 10 -24 6 3 10 17 10 30 0 18 11
32 41 51 l41 25 -7 59 c-9 81 -2 100 40 100 42 0 48 -15 40 -99 l-7 -66 41
-23 c34 -18 41 -28 41 -52 0 -17 5 -30 10 -30 6 0 10 14 10 30 0 24 -8 36 -40
58 l-41 27 7 63 c7 81 -10 112 -61 112 -26 0 -39 -6 -51 -25z"/>
<path d="M117 113 c-11 -10 -8 -73 3 -73 6 0 10 9 10 21 l0 20 29 -20 c61 -43
114 -61 187 -61 59 0 81 5 131 30 59 29 91 55 81 65 -2 3 -22 -8 -44 -24 -52
-38 -105 -54 -175 -53 -63 1 -146 31 -175 63 -16 18 -16 19 4 19 12 0 22 5 22
10 0 11 -63 14 -73 3z"/>
</g>
</svg>
